HIERARCHY
ROOT Hips
{
  OFFSET 5.84602e-005 68.8428 3.50346
  CHANNELS 6 Xposition Yposition Zposition Zrotation Xrotation Yrotation
  JOINT Spine
  {
    OFFSET 0 8.597 -4.6522
    CHANNELS 3 Zrotation Xrotation Yrotation
    JOINT Spine1
    {
      OFFSET 0 7.8454 0.4098
      CHANNELS 3 Zrotation Xrotation Yrotation
      JOINT Spine2
      {
        OFFSET 0 9.7078 -2.1609
        CHANNELS 3 Zrotation Xrotation Yrotation
        JOINT Neck
        {
          OFFSET 0 21.8761 -0.4549
          CHANNELS 3 Zrotation Xrotation Yrotation
          JOINT Head
          {
            OFFSET 0 12.3537 3.3602
            CHANNELS 3 Zrotation Xrotation Yrotation
            End Site
            {
              OFFSET 0.0001 18.9506 0.5657
            }
          }
        }
        JOINT LeftShoulder
        {
          OFFSET 2.2086 21.1115 7.2329
          CHANNELS 3 Zrotation Xrotation Yrotation
          JOINT LeftArm
          {
            OFFSET 13.1193 3.0282 -4.8998
            CHANNELS 3 Zrotation Xrotation Yrotation
            JOINT LeftForeArm
            {
              OFFSET 27.4081 -0.0973053 -0.2375
              CHANNELS 3 Zrotation Xrotation Yrotation
              JOINT LeftHand
              {
                OFFSET 22.8641 0.0662994 -0.1369
                CHANNELS 3 Zrotation Xrotation Yrotation
                JOINT LeftHandIndex1
                {
                  OFFSET 8.8614 0.775009 2.4612
                  CHANNELS 3 Zrotation Xrotation Yrotation
                  JOINT LeftHandIndex2
                  {
                    OFFSET 3.3146 -0.808304 0.5841
                    CHANNELS 3 Zrotation Xrotation Yrotation
                    JOINT LeftHandIndex3
                    {
                      OFFSET 2.2628 -0.552002 0.3989
                      CHANNELS 3 Zrotation Xrotation Yrotation
                      End Site
                      {
                        OFFSET 1.6102 -0.4807 0.2612
                      }
                    }
                  }
                }
                JOINT LeftHandMiddle1
                {
                  OFFSET 8.9937 0.895004 0.2143
                  CHANNELS 3 Zrotation Xrotation Yrotation
                  JOINT LeftHandMiddle2
                  {
                    OFFSET 4.0984 0.0113983 -0.0242
                    CHANNELS 3 Zrotation Xrotation Yrotation
                    JOINT LeftHandMiddle3
                    {
                      OFFSET 2.2716 0.00689697 -0.0138001
                      CHANNELS 3 Zrotation Xrotation Yrotation
                      End Site
                      {
                        OFFSET 2.0404 -0.1441 0.0027
                      }
                    }
                  }
                }
                JOINT LeftHandRing1
                {
                  OFFSET 8.5234 0.597198 -2.0164
                  CHANNELS 3 Zrotation Xrotation Yrotation
                  JOINT LeftHandRing2
                  {
                    OFFSET 3.7188 -0.188293 -0.2328
                    CHANNELS 3 Zrotation Xrotation Yrotation
                    JOINT LeftHandRing3
                    {
                      OFFSET 2.1191 -0.106598 -0.1332
                      CHANNELS 3 Zrotation Xrotation Yrotation
                      End Site
                      {
                        OFFSET 1.8737 -0.2304 -0.0886
                      }
                    }
                  }
                }
                JOINT LeftHandPinky1
                {
                  OFFSET 7.9094 -0.601089 -3.4825
                  CHANNELS 3 Zrotation Xrotation Yrotation
                  JOINT LeftHandPinky2
                  {
                    OFFSET 2.2874 -0.477005 -0.6314
                    CHANNELS 3 Zrotation Xrotation Yrotation
                    JOINT LeftHandPinky3
                    {
                      OFFSET 1.6774 -0.349396 -0.4633
                      CHANNELS 3 Zrotation Xrotation Yrotation
                      End Site
                      {
                        OFFSET 1.4888 -0.4091 -0.3416
                      }
                    }
                  }
                }
                JOINT LeftHandThumb1
                {
                  OFFSET 1.833 -1.3875 1.3896
                  CHANNELS 3 Zrotation Xrotation Yrotation
                  JOINT LeftHandThumb2
                  {
                    OFFSET 3.4129 -1.121 2.5732
                    CHANNELS 3 Zrotation Xrotation Yrotation
                    JOINT LeftHandThumb3
                    {
                      OFFSET 2.2474 -0.804199 1.6192
                      CHANNELS 3 Zrotation Xrotation Yrotation
                      End Site
                      {
                        OFFSET 1.6527 -0.5689 1.1317
                      }
                    }
                  }
                }
              }
            }
          }
        }
        JOINT RightShoulder
        {
          OFFSET -2.2086 21.1115 7.2329
          CHANNELS 3 Zrotation Xrotation Yrotation
          JOINT RightArm
          {
            OFFSET -13.1216 3.0287 -4.9007
            CHANNELS 3 Zrotation Xrotation Yrotation
            JOINT RightForeArm
            {
              OFFSET -27.4081 -0.0973053 -0.2375
              CHANNELS 3 Zrotation Xrotation Yrotation
              JOINT RightHand
              {
                OFFSET -22.8641 0.0664063 -0.1369
                CHANNELS 3 Zrotation Xrotation Yrotation
                JOINT RightHandIndex1
                {
                  OFFSET -8.8614 0.774994 2.4612
                  CHANNELS 3 Zrotation Xrotation Yrotation
                  JOINT RightHandIndex2
                  {
                    OFFSET -3.3146 -0.808304 0.5841
                    CHANNELS 3 Zrotation Xrotation Yrotation
                    JOINT RightHandIndex3
                    {
                      OFFSET -2.2628 -0.552002 0.3989
                      CHANNELS 3 Zrotation Xrotation Yrotation
                      End Site
                      {
                        OFFSET -1.6102 -0.4807 0.2612
                      }
                    }
                  }
                }
                JOINT RightHandMiddle1
                {
                  OFFSET -8.9937 0.894989 0.2143
                  CHANNELS 3 Zrotation Xrotation Yrotation
                  JOINT RightHandMiddle2
                  {
                    OFFSET -4.0984 0.0113983 -0.0242
                    CHANNELS 3 Zrotation Xrotation Yrotation
                    JOINT RightHandMiddle3
                    {
                      OFFSET -2.2716 0.00691223 -0.0138001
                      CHANNELS 3 Zrotation Xrotation Yrotation
                      End Site
                      {
                        OFFSET -2.0404 -0.1441 0.0027
                      }
                    }
                  }
                }
                JOINT RightHandRing1
                {
                  OFFSET -8.5234 0.597198 -2.0164
                  CHANNELS 3 Zrotation Xrotation Yrotation
                  JOINT RightHandRing2
                  {
                    OFFSET -3.7188 -0.188309 -0.2328
                    CHANNELS 3 Zrotation Xrotation Yrotation
                    JOINT RightHandRing3
                    {
                      OFFSET -2.1191 -0.106598 -0.1332
                      CHANNELS 3 Zrotation Xrotation Yrotation
                      End Site
                      {
                        OFFSET -1.8737 -0.2304 -0.0886
                      }
                    }
                  }
                }
                JOINT RightHandPinky1
                {
                  OFFSET -7.9094 -0.601105 -3.4825
                  CHANNELS 3 Zrotation Xrotation Yrotation
                  JOINT RightHandPinky2
                  {
                    OFFSET -2.2874 -0.477005 -0.6314
                    CHANNELS 3 Zrotation Xrotation Yrotation
                    JOINT RightHandPinky3
                    {
                      OFFSET -1.6774 -0.349396 -0.4633
                      CHANNELS 3 Zrotation Xrotation Yrotation
                      End Site
                      {
                        OFFSET -1.4888 -0.4091 -0.3416
                      }
                    }
                  }
                }
                JOINT RightHandThumb1
                {
                  OFFSET -1.833 -1.38751 1.3896
                  CHANNELS 3 Zrotation Xrotation Yrotation
                  JOINT RightHandThumb2
                  {
                    OFFSET -3.41299 -1.12099 2.5732
                    CHANNELS 3 Zrotation Xrotation Yrotation
                    JOINT RightHandThumb3
                    {
                      OFFSET -2.24741 -0.804108 1.6192
                      CHANNELS 3 Zrotation Xrotation Yrotation
                      End Site
                      {
                        OFFSET -1.6527 -0.5689 1.1317
                      }
                    }
                  }
                }
              }
            }
          }
        }
      }
    }
  }
  JOINT RightUpLeg
  {
    OFFSET -9.1966 3.8861 -0.7581
    CHANNELS 3 Zrotation Xrotation Yrotation
    JOINT RightLeg
    {
      OFFSET -0.7359 -41.0265 0
      CHANNELS 3 Zrotation Xrotation Yrotation
      JOINT RightFoot
      {
        OFFSET 0 -40.2855 0
        CHANNELS 3 Zrotation Xrotation Yrotation
        JOINT RightToeBase
        {
          OFFSET 0 -5.6122 11.7359
          CHANNELS 3 Zrotation Xrotation Yrotation
          End Site
          {
            OFFSET 0 0 7.8731
          }
        }
      }
    }
  }
  JOINT LeftUpLeg
  {
    OFFSET 9.1965 3.8864 -0.7581
    CHANNELS 3 Zrotation Xrotation Yrotation
    JOINT LeftLeg
    {
      OFFSET 0.7359 -41.0268 0
      CHANNELS 3 Zrotation Xrotation Yrotation
      JOINT LeftFoot
      {
        OFFSET 0 -40.2855 0
        CHANNELS 3 Zrotation Xrotation Yrotation
        JOINT LeftToeBase
        {
          OFFSET 0 -5.6122 11.7359
          CHANNELS 3 Zrotation Xrotation Yrotation
          End Site
          {
            OFFSET 0 0 7.8731
          }
        }
      }
    }
  }
}
MOTION
Frames:	4
Frame Time:	0.0333333
39.7126 8.13776 25.1823 179.997 58.9947 3.2456e-011 -0.0319501 9.85923 -0.0819833 -0.0504769 19.7185 -0.161976 -0.0504769 19.7185 -0.161975 -2.42808e-007 13.997 -3.9215e-007 2.24693e-008 0.134631 -2.31284e-008 -15.4535 -6.91556 -1.32957 -20.3693 55.1096 2.57035 8.78437 35.3021 -19.4349 2.32186 2.33991 2.05844 -3.89812e-007 -1.68254e-007 -4.13847e-008 -3.89812e-007 -1.68254e-007 -4.13847e-008 -3.89812e-007 -1.68254e-007 -4.13847e-008 -3.89812e-007 -1.68254e-007 -4.13847e-008 -0.0146131 -8.78458e-005 -4.34889e-006 -3.89814e-007 -1.68248e-007 -4.14059e-008 -3.89812e-007 -1.68254e-007 -4.13847e-008 -0.0187603 -0.00117713 5.68627e-005 -3.89815e-007 -1.68247e-007 -4.14082e-008 -3.89812e-007 -1.68254e-007 -4.13847e-008 -0.0122754 -0.00325007 0.000672845 -3.89816e-007 -1.68247e-007 -4.13916e-008 -3.89812e-007 -1.68254e-007 -4.13847e-008 -3.89812e-007 -1.68254e-007 -4.13847e-008 -3.89812e-007 -1.68254e-007 -4.13847e-008 15.2498 -6.94597 1.4087 20.469 55.1611 -2.72177 -8.88947 35.2633 19.4668 -2.29768 2.3333 -2.01191 1.59028e-015 -5.56597e-015 -1.27222e-014 -7.81194e-007 3.33833e-007 -8.06444e-008 -7.81194e-007 3.33833e-007 -8.06444e-008 1.59028e-015 -5.56597e-015 -1.27222e-014 0.0149916 -8.99856e-005 6.12882e-007 -8.28536e-007 7.83429e-007 2.14935e-006 1.59028e-015 -5.56597e-015 -1.27222e-014 0.0189872 -0.00118928 -5.86044e-005 -7.81199e-007 3.3382e-007 -8.06916e-008 1.59028e-015 -5.56597e-015 -1.27222e-014 0.0122765 -0.00324929 -0.000675257 -8.28811e-007 7.8299e-007 2.14931e-006 1.59028e-015 -5.56597e-015 -1.27222e-014 -7.81194e-007 3.33833e-007 -8.06444e-008 -7.81194e-007 3.33833e-007 -8.06444e-008 -30.8586 -60.29 -64.3266 -130.308 38.1327 143.166 -6.20278 -9.6198 -4.85609 5.96993e-007 -2.84442e-008 8.42159e-008 44.7871 -67.3658 77.3745 135.066 40.5453 -126.03 23.8798 -11.0948 11.2489 -6.23735e-007 2.13792e-007 5.41898e-007 
39.7133 8.13914 25.2285 179.997 58.9947 3.2456e-011 -0.0315364 9.73551 -0.0821989 -0.0497611 19.471 -0.162472 -0.0497611 19.4709 -0.162472 1.95509e-007 13.997 -7.90451e-008 -3.1326e-008 0.134635 1.88564e-008 -16.389 -6.78161 -1.25523 -19.624 55.1173 2.54778 8.54359 35.3618 -18.9093 2.26931 2.7524 1.80095 -7.95139e-016 1.59028e-015 3.18055e-015 -3.89797e-007 -1.68297e-007 -4.13663e-008 -7.79594e-007 -3.36595e-007 -8.27326e-008 -7.95139e-016 1.59028e-015 3.18055e-015 -0.0146138 -8.89447e-005 -3.1713e-006 -7.79598e-007 -3.36584e-007 -8.27749e-008 -7.95139e-016 1.59028e-015 3.18055e-015 -0.0187675 -0.00117837 7.33844e-005 -7.796e-007 -3.36581e-007 -8.27797e-008 -7.95139e-016 1.59028e-015 3.18055e-015 -0.0122732 -0.00324818 0.000670262 -7.79602e-007 -3.36582e-007 -8.27464e-008 -7.95139e-016 1.59028e-015 3.18055e-015 -3.89797e-007 -1.68297e-007 -4.13663e-008 -7.79594e-007 -3.36595e-007 -8.27326e-008 16.1747 -6.81305 1.33732 19.7273 55.1707 -2.70347 -8.65279 35.3223 18.947 -2.24367 2.74704 -1.7548 -3.9058e-007 1.66965e-007 -4.03038e-008 2.64834e-031 -2.38542e-015 6.36111e-015 -3.9058e-007 1.66964e-007 -4.03038e-008 -3.9058e-007 1.66965e-007 -4.03038e-008 0.0150048 -9.18254e-005 2.01808e-006 -3.3319e-007 3.93164e-007 8.79131e-007 -3.9058e-007 1.66965e-007 -4.03038e-008 0.0189937 -0.00119054 -5.35816e-005 -3.90583e-007 1.66958e-007 -4.03274e-008 -3.9058e-007 1.66965e-007 -4.03038e-008 0.0122678 -0.00324745 -0.000672407 -3.32802e-007 3.93564e-007 8.7924e-007 -3.9058e-007 1.66965e-007 -4.03038e-008 2.64834e-031 -2.38542e-015 6.36111e-015 -3.9058e-007 1.66964e-007 -4.03038e-008 -30.5838 -60.1103 -64.1146 -130.028 38.2713 143.019 -6.20761 -9.56628 -4.94894 -3.84584e-007 3.08972e-008 -5.10906e-007 44.4486 -67.1835 77.0161 134.859 40.6701 -125.909 23.8785 -11.0877 11.2449 -1.40375e-006 4.81261e-007 1.21878e-006 
39.7139 8.14052 25.2746 179.997 58.9947 3.2456e-011 -0.0311238 9.61176 -0.0824114 -0.0490499 19.2235 -0.16296 -0.0490499 19.2236 -0.162961 1.23869e-007 13.997 -3.97118e-007 -5.07188e-008 0.134642 1.52493e-008 -17.3241 -6.64894 -1.17876 -18.8788 55.1248 2.52506 8.30199 35.4197 -18.383 2.21862 3.16508 1.54371 -4.48677e-007 -4.64163e-007 -3.20093e-006 1.11972e-007 1.24372e-006 3.16906e-006 7.20652e-007 4.08935e-008 -3.07685e-006 -4.48677e-007 -4.64163e-007 -3.20093e-006 -0.014609 -8.7835e-005 1.37615e-006 7.20823e-007 4.12869e-008 -3.07684e-006 -4.48677e-007 -4.64163e-007 -3.20093e-006 -0.018753 -0.00117594 6.29021e-005 8.50057e-007 -1.07927e-007 -2.20535e-006 -4.48677e-007 -4.64163e-007 -3.20093e-006 -0.0122696 -0.00324609 0.000680517 7.2071e-007 4.12573e-008 -3.07687e-006 -4.48677e-007 -4.64163e-007 -3.20093e-006 1.11972e-007 1.24372e-006 3.16906e-006 7.20652e-007 4.08935e-008 -3.07685e-006 17.0992 -6.68133 1.26382 18.9856 55.1802 -2.68495 -8.41532 35.3796 18.4265 -2.19151 3.16097 -1.49801 7.81115e-007 -3.34046e-007 8.05934e-008 5.85836e-007 -2.50535e-007 6.0445e-008 3.90557e-007 -1.67023e-007 4.02967e-008 7.81115e-007 -3.34046e-007 8.05934e-008 0.0149949 -9.1042e-005 -5.25543e-006 3.90559e-007 -1.67018e-007 4.03183e-008 7.81115e-007 -3.34046e-007 8.05934e-008 0.0189924 -0.00118873 -6.05934e-005 3.9056e-007 -1.67016e-007 4.03203e-008 7.81115e-007 -3.34046e-007 8.05934e-008 0.0122694 -0.00324985 -0.00067488 3.90561e-007 -1.67017e-007 4.03034e-008 7.81115e-007 -3.34046e-007 8.05934e-008 5.85836e-007 -2.50535e-007 6.0445e-008 3.90557e-007 -1.67023e-007 4.02967e-008 -30.3139 -59.93 -63.9053 -129.746 38.4093 142.872 -6.21227 -9.51281 -5.04177 -1.0871e-007 -2.74993e-006 -2.72776e-007 44.1199 -67.0005 76.6671 134.651 40.7934 -125.789 23.8773 -11.0806 11.241 -3.12022e-007 1.06997e-007 2.70729e-007 
39.7146 8.14191 25.3208 179.997 58.9947 3.2456e-011 -0.0307122 9.48816 -0.0826208 -0.048343 18.9763 -0.163441 -0.0483431 18.9763 -0.163441 1.08918e-006 13.9969 -4.20335e-007 4.76743e-008 0.134634 -1.401e-007 -18.2586 -6.51759 -1.10018 -18.1335 55.1321 2.50216 8.05958 35.4758 -17.8561 2.16976 3.57792 1.28682 -5.91546e-009 6.52439e-007 -3.14976e-006 -7.26584e-007 6.11082e-007 -7.313e-008 1.18492e-007 1.15526e-006 -5.43072e-006 -5.91546e-009 6.52439e-007 -3.14976e-006 -0.0146069 -8.9054e-005 -2.10999e-007 -5.73563e-009 6.52841e-007 -3.14968e-006 -5.91546e-009 6.52439e-007 -3.14976e-006 -0.0187509 -0.00117501 5.5902e-005 -5.71342e-009 6.52969e-007 -3.14965e-006 -5.91546e-009 6.52439e-007 -3.14976e-006 -0.0122796 -0.00324873 0.000677224 -5.84765e-009 6.52817e-007 -3.1497e-006 -5.91546e-009 6.52439e-007 -3.14976e-006 -7.26584e-007 6.11082e-007 -7.313e-008 1.18492e-007 1.15526e-006 -5.43072e-006 18.0231 -6.55091 1.18826 18.2439 55.1895 -2.66621 -8.17708 35.4351 17.9054 -2.14119 3.57508 -1.2415 1.95264e-007 -8.35462e-008 2.01508e-008 5.85793e-007 -2.50639e-007 6.04525e-008 1.95264e-007 -8.35463e-008 2.01508e-008 1.95264e-007 -8.35462e-008 2.01508e-008 0.0149982 -9.19223e-005 -2.70493e-006 1.95265e-007 -8.35436e-008 2.01616e-008 1.95264e-007 -8.35462e-008 2.01508e-008 0.0189961 -0.00119111 -5.57608e-005 2.4969e-007 1.4435e-007 9.34323e-007 1.95264e-007 -8.35462e-008 2.01508e-008 0.0122827 -0.00325168 -0.000677663 2.50604e-007 1.44572e-007 9.3441e-007 1.95264e-007 -8.35462e-008 2.01508e-008 5.85793e-007 -2.50639e-007 6.04525e-008 1.95264e-007 -8.35463e-008 2.01508e-008 -30.0471 -59.7493 -63.699 -129.464 38.5467 142.723 -6.21684 -9.45934 -5.13458 -1.95437e-008 2.76027e-006 1.02663e-007 43.7939 -66.8167 76.3212 134.441 40.9169 -125.667 23.8762 -11.0735 11.237 -4.68148e-007 1.60572e-007 4.05929e-007 
